<svg xmlns="http://www.w3.org/2000/svg" xmlns:xlink="http://www.w3.org/1999/xlink"><symbol id="gefco_logo" viewBox="0 0 270.8 270.8" xml:space="preserve" xmlns="http://www.w3.org/2000/svg"><style>.ast0{fill:#ffcd00}</style><g id="aXMLID_36_"><g id="aXMLID_37_"><path id="aXMLID_38_" class="ast0" d="M270.8 270.8H0V0h270.8v270.8zM11.4 259.4h248v-248h-248v248z"/></g></g><path id="aXMLID_35_" class="ast0" d="M72.4 218.2v18.9c0 .2-.1.3-.3.4-3 .9-9.7 2.1-16.8 2.1-24.9 0-28.1-12.3-28.1-18.6 0-6.3 4.6-18.6 29.6-18.6 4.6 0 8.5.4 11.8 1.1.2.1.4.3.3.5l-2.3 6.4c-.1.2-.3.3-.5.3-2.4-.7-5.4-1.1-9.2-1.1C41 209.6 38 217.2 38 221c0 3.7 2.5 11.3 19.3 11.3 1.7 0 3.2-.1 4.6-.2.2 0 .4-.2.4-.4V225c0-.2-.2-.4-.4-.4H51.1c-.3 0-.5-.3-.4-.5l2.2-5.9c.1-.2.2-.3.4-.3H72c.2-.1.4.1.4.3z"/><path id="aXMLID_34_" class="ast0" d="M193.1 231.2l2.4 6.7c.1.2-.1.5-.3.5-3.2.7-7.1 1.1-11.5 1.1-24.4 0-29-12.3-29-18.6 0-6.3 4.5-18.6 29-18.6 4.5 0 8.3.4 11.5 1.1.2.1.4.3.3.5l-2.4 6.7c-.1.2-.3.3-.5.3-2.4-.7-5.2-1.1-8.9-1.1-15.6 0-18.5 7.3-18.5 11.1s2.9 11.1 18.5 11.1c3.6 0 6.5-.4 8.9-1.1.2 0 .4.1.5.3z"/><path class="ast0" d="M219 202.3c-14 0-24.9 8.2-24.9 18.7 0 10.6 10.6 18.6 24.8 18.6 14 0 24.9-8.2 24.9-18.7-.1-10.6-10.7-18.6-24.8-18.6zm0 29.7c-8.2 0-14.4-4.8-14.4-11.1 0-6.2 6.1-11 14.3-11 8.2 0 14.4 4.8 14.4 11.1-.1 6.3-6.2 11-14.3 11z"/><g id="aXMLID_3_"><path id="aXMLID_4_" class="ast0" d="M130.3 211v7.4c0 .2.2.4.4.4h19.5c.3 0 .5.3.4.5l-2.4 6.7c-.1.2-.2.3-.4.3h-17.1c-.2 0-.4.2-.4.4v11.6c0 .2-.2.4-.4.4h-10.2c-.2 0-.4-.2-.4-.4v-34.9c0-.2.2-.4.4-.4h37.5c.3 0 .5.3.4.5l-2.4 6.7c-.1.2-.2.3-.4.3h-24.1c-.3.1-.4.3-.4.5z"/></g><g id="aXMLID_1_"><path id="aXMLID_2_" class="ast0" d="M114 231.9l-2.4 6.7c-.1.2-.2.3-.4.3H78.4c-.2 0-.4-.2-.4-.4v-34.9c0-.2.2-.4.4-.4h35.2c.3 0 .5.3.4.5l-2.4 6.7c-.1.2-.2.3-.4.3H89.4c-.2 0-.4.2-.4.4v6c0 .2.2.4.4.4h19c.3 0 .5.3.4.5l-2.4 6.7c-.1.2-.2.3-.4.3H89.4c-.2 0-.4.2-.4.4v5.6c0 .2.2.4.4.4h24.3c.2-.1.4.2.3.5z"/></g></symbol></svg>